<?xml version="1.0" encoding="UTF-8"?> <!-- Generator: Adobe Illustrator 24.2.0, SVG Export Plug-In . SVG Version: 6.00 Build 0) --> <svg xmlns="http://www.w3.org/2000/svg" xmlns:xlink="http://www.w3.org/1999/xlink" version="1.1" id="Layer_1" x="0px" y="0px" viewBox="0 0 1920 391" style="enable-background:new 0 0 1920 391;" xml:space="preserve"> <style type="text/css"> .st0{fill:#001E62;} .st1{fill:#EE3044;} </style> <g> <path class="st0" d="M503.8,303.6H479V191.9h24.8V303.6z"></path> <path class="st0" d="M554,191.9v89.3h44.7v22.3h-69.5V191.9H554z"></path> <path class="st0" d="M638.9,191.9v89.3h44.7v22.3h-69.5V191.9H638.9z"></path> <path class="st0" d="M723.7,303.6h-24.8V191.9h24.8V303.6z"></path> <path class="st0" d="M801,235.6c8.9,14.6,16.4,28.6,16.4,28.6h0.2c0,0-1-22-1-35v-37.3H841v111.7h-24.9l-26.4-43 c-6.2-10.3-16.9-30.1-16.9-30.1h-0.2c0,0,1.2,18.6,1.2,36.4v36.6h-24.6V191.9h25.1L801,235.6z"></path> <path class="st0" d="M915.1,190c33,0,54,23.5,54,57.8c0,34.1-19.5,57.8-54,57.8c-34,0-54-23.6-54-57.8 C861.1,213.4,882.1,190,915.1,190z M915.1,284.7c18.9,0,29.2-13.6,29.2-36.9s-10.7-37.4-29.2-37.4c-18.7,0-29.2,14.1-29.2,37.4 S896.1,284.7,915.1,284.7z"></path> <path class="st0" d="M1014.3,303.6h-24.8V191.9h24.8V303.6z"></path> <path class="st0" d="M1107.9,222.6c-7.7-7.4-17.7-12.1-28.9-12.1c-10.3,0-17.6,4.3-17.6,11.3c0,7.2,5.1,10.2,15.3,12.1l18.1,3.6 c20.7,4.1,33.7,12.3,33.7,32c0,23.1-20.5,36-47,36c-25.8,0-43.5-13.8-50.4-23.3l17.2-14.8c6.9,9.2,18.4,17.4,33.8,17.4 c13,0,20.5-5.1,20.5-13.3c0-7.7-6.6-9.9-16.8-11.7l-14.4-2.8c-20.4-3.9-35.8-11.3-35.8-33.2c0-20,18.6-34,43-34 c19.7,0,35.5,7.4,45,17.6L1107.9,222.6z"></path> <path class="st0" d="M1278.8,279.1c-8.4,16.4-22.8,26.4-45.3,26.4c-33.3,0-53.4-23.6-53.4-57.8c0-34.3,21-57.8,53.4-57.8 c24.8,0,39.4,13.5,46.1,28.6l-20.7,8.7c-4.6-11-13-16.9-25.1-16.9c-18.4,0-28.9,14.1-28.9,37.4s10.2,36.9,28.9,36.9 c11.8,0,20-5.3,24.6-15.3L1278.8,279.1z"></path> <path class="st0" d="M1321.2,257.3v46.3h-24.8V191.9h24.8v43h41.4v-43h24.8v111.6h-24.8v-46.3H1321.2z"></path> <path class="st0" d="M1437.8,303.6H1413V191.9h24.8V303.6z"></path> <path class="st0" d="M1556.5,279.1c-8.4,16.4-22.8,26.4-45.3,26.4c-33.3,0-53.4-23.6-53.4-57.8c0-34.3,21-57.8,53.4-57.8 c24.8,0,39.4,13.5,46.1,28.6l-20.7,8.7c-4.6-11-13-16.9-25.1-16.9c-18.4,0-28.9,14.1-28.9,37.4s10.2,36.9,28.9,36.9 c11.8,0,20-5.3,24.6-15.3L1556.5,279.1z"></path> <path class="st0" d="M1589.7,303.6h-26.1l37.6-111.6h30.1l37.3,111.6h-26.6l-6.6-22.2h-39.2L1589.7,303.6z M1619.7,229.5 c-2-7.1-3.8-14.4-3.8-14.4h-0.2c0,0-2,7.4-4.1,14.6l-9.5,31.4h26.8L1619.7,229.5z"></path> <path class="st0" d="M1727.1,190c24.8,0,39.4,13.5,46.1,28.6l-20.7,8.7c-4.6-11-13-16.9-25.1-16.9c-18.4,0-29.1,14.1-29.1,37.4 c0,23.6,10.3,37.9,29.2,37.9c16.3,0,23.6-10.4,25-23.6h-31.7v-21.8h53v63.4h-21.7v-9.9c-4.8,5.8-15.1,11.8-29.1,11.8 c-30.5,0-49.4-23.6-49.4-57.8C1673.7,213.4,1694.7,190,1727.1,190z"></path> <path class="st0" d="M1845,190c33,0,54,23.5,54,57.8c0,34.1-19.5,57.8-54,57.8c-34,0-54-23.6-54-57.8C1791,213.4,1812,190,1845,190 z M1845,284.7c18.9,0,29.2-13.6,29.2-36.9s-10.7-37.4-29.2-37.4c-18.7,0-29.2,14.1-29.2,37.4S1825.9,284.7,1845,284.7z"></path> </g> <path class="st1" d="M340.4,167.9l-30.8,14.8c-3-11.5-9.4-18.3-20.6-18.3c-15.2,0-22.8,12.6-22.8,33.1c0,20.4,7.7,32.6,22.8,32.6 c10.5,0,16.6-5.6,19.9-14.8l32.3,11.5c-8.4,19-25.3,32.1-52.3,32.1c-37.5,0-58.9-25.1-58.9-61.4c0-36.4,22.7-61.3,59.6-61.3 C317.8,136.1,334.5,152.4,340.4,167.9 M212.6,256.8h-35.6V138.2h35.6V256.8z M155.5,208.3c0,16.6-1.8,24.6-6.5,32.6 C141.2,254,120.2,259,102,259c-18.3,0-39.2-5.1-47.1-18.1c-4.7-8-6.5-16.1-6.5-32.6v-70.1H84V209c0,8,1.1,13.3,4,16.7 c2.8,3.3,7.3,4.9,13.9,4.9c6.6,0,11.2-1.6,13.9-4.9c3-3.5,4-8.7,4-16.7v-70.8h35.6L155.5,208.3L155.5,208.3z M372.5,192 c0-100.4-81.4-181.7-181.8-181.7C90.4,10.3,9,91.6,9,192s81.4,181.7,181.8,181.7C291.1,373.7,372.5,292.4,372.5,192"></path> <g> <path class="st0" d="M502.2,127.9c-5.4,0-9.2-1.8-11-5.9c-0.9-1.9-1.3-4.1-1.3-9.8V78.7h-10.1v33.7c0,8.4,0.9,12.3,3,15.9 c3.8,6.3,10.9,9,19.4,9s15.6-2.7,19.4-9c2.1-3.6,3-7.5,3-15.9V78.7h-10.1v33.5c0,5.7-0.3,7.8-1.3,9.8 C511.5,126.1,507.7,127.9,502.2,127.9z"></path> <path class="st0" d="M571.4,78.7h-9.5v57.6H572v-19.2c0-9.7-0.1-18.6-0.2-21.3c0.1,0,1.9,3.1,3.6,5.9l22.7,34.6h9.5V78.7h-10.1V98 c0,8.1,0.2,18.8,0.2,20.7c-0.8-1.3-3.1-5.1-4.4-7L571.4,78.7z"></path> <rect x="645.4" y="78.7" class="st0" width="10.2" height="57.6"></rect> <path class="st0" d="M698.2,78.7h-10.7l17.9,57.6h12.5l18.6-57.6H726l-12,38.8l-2.2,7.6c0-0.3-1-4.8-1.9-7.6L698.2,78.7z"></path> <polygon class="st0" points="808.7,87.8 808.7,78.7 768.3,78.7 768.3,136.3 810.8,136.3 810.8,127.2 778.5,127.2 778.5,111 805.9,111 805.9,102 778.5,102 778.5,87.8 "></polygon> <path class="st0" d="M855.1,87.7H866c4.2,0,6.3,0.3,8.1,1.1c2.5,1.1,4.1,3.9,4.1,7c0,3.1-1.5,6-4.1,7.2c-1.8,0.8-4,1.1-8.1,1.1 h-10.9V87.7z M865.5,113.3l13.4,23H891l-14.4-24.1c1.4-0.5,3.1-1.2,4.5-2c4.7-3.1,7.6-7.8,7.6-14.2c0-7-3.1-11.8-8.2-14.7 c-4.4-2.5-9.6-2.6-14.5-2.6h-21.1v57.6h10.2v-23L865.5,113.3L865.5,113.3z"></path> <path class="st0" d="M965.6,87.2c-3.4-3.7-10.4-9.6-22.4-9.6c-12.2,0-21.8,6.9-21.8,17.1c0,10.5,7.9,14.5,17.3,16.5l7.7,1.7 c5.8,1.3,9.8,3,9.8,7.5c0,4.6-4,7.8-11.7,7.8c-8.1,0-14.5-4.5-17.1-8.8l-8.5,6.1c4,5.6,12.5,11.8,25.1,11.8 c14.4,0,23.1-7.1,23.1-17.8c0-10.5-7.8-14-18.6-16.4l-7-1.5c-6.5-1.4-9.3-3.1-9.3-7.3c0-4.4,3.9-7.7,10.6-7.7 c6.4,0,11.7,3,14.9,6.9L965.6,87.2z"></path> <rect x="1001.3" y="78.7" class="st0" width="10.2" height="57.6"></rect> <polygon class="st0" points="1043.8,87.8 1060.7,87.8 1060.7,136.3 1070.8,136.3 1070.8,87.8 1087.6,87.8 1087.6,78.7 1043.8,78.7 "></polygon> <polygon class="st0" points="1148.1,112.7 1170.2,78.7 1158.5,78.7 1143.5,103.3 1128.7,78.7 1117,78.7 1137.9,112.7 1137.9,136.3 1148.1,136.3 "></polygon> <path class="st0" d="M1251.8,107.5c0-12.5,6.1-20.8,16.2-20.8c10.1,0,16.2,8.2,16.2,20.8s-5.9,20.6-16.2,20.6 S1251.8,120,1251.8,107.5z M1240.7,107.5c0,17.5,9.8,29.8,27.3,29.8c17.5,0,27.3-12.3,27.3-29.8c0-17.6-10.5-29.8-27.3-29.8 C1251.3,77.7,1240.7,89.9,1240.7,107.5z"></path> <polygon class="st0" points="1367.3,87.8 1367.3,78.7 1330.2,78.7 1330.2,136.3 1340.3,136.3 1340.3,111.8 1366.2,111.8 1366.2,102.7 1340.3,102.7 1340.3,87.8 "></polygon> </g> </svg> 